<svg width="22" height="22" viewBox="0 0 22 22" fill="none" xmlns="http://www.w3.org/2000/svg">
<path fill-rule="evenodd" clip-rule="evenodd" d="M11 21.3834L11.6029 20.857C16.673 16.4299 19.25 12.5644 19.25 9.1665C19.25 4.35461 15.4944 0.916504 11 0.916504C6.50563 0.916504 2.75 4.35461 2.75 9.1665C2.75 12.5644 5.32703 16.4299 10.3971 20.857L11 21.3834ZM11 18.9413C6.69773 15.0639 4.58333 11.7783 4.58333 9.1665C4.58333 5.40506 7.48377 2.74984 11 2.74984C14.5162 2.74984 17.4167 5.40506 17.4167 9.1665C17.4167 11.7783 15.3023 15.0639 11 18.9413ZM11 4.58317C13.5313 4.58317 15.5833 6.6352 15.5833 9.1665C15.5833 11.6978 13.5313 13.7498 11 13.7498C8.46869 13.7498 6.41667 11.6978 6.41667 9.1665C6.41667 6.6352 8.46869 4.58317 11 4.58317ZM8.25 9.1665C8.25 7.64772 9.48122 6.4165 11 6.4165C12.5188 6.4165 13.75 7.64772 13.75 9.1665C13.75 10.6853 12.5188 11.9165 11 11.9165C9.48122 11.9165 8.25 10.6853 8.25 9.1665Z" fill="#131423"/>
</svg>
