<svg width="33" height="41" viewBox="0 0 33 41" fill="none" xmlns="http://www.w3.org/2000/svg">
<path fill-rule="evenodd" clip-rule="evenodd" d="M16.5 40.7951L17.6784 39.7661C27.5881 31.1132 32.625 23.5578 32.625 16.9165C32.625 7.51144 25.2844 0.791504 16.5 0.791504C7.71555 0.791504 0.375 7.51144 0.375 16.9165C0.375 23.5578 5.41193 31.1132 15.3216 39.7661L16.5 40.7951ZM16.5 36.0218C8.09101 28.4433 3.95833 22.0214 3.95833 16.9165C3.95833 9.56458 9.62737 4.37484 16.5 4.37484C23.3726 4.37484 29.0417 9.56458 29.0417 16.9165C29.0417 22.0214 24.909 28.4433 16.5 36.0218ZM16.5 7.95817C21.4475 7.95817 25.4583 11.969 25.4583 16.9165C25.4583 21.8641 21.4475 25.8748 16.5 25.8748C11.5524 25.8748 7.54167 21.8641 7.54167 16.9165C7.54167 11.969 11.5524 7.95817 16.5 7.95817ZM11.125 16.9165C11.125 13.948 13.5315 11.5415 16.5 11.5415C19.4685 11.5415 21.875 13.948 21.875 16.9165C21.875 19.885 19.4685 22.2915 16.5 22.2915C13.5315 22.2915 11.125 19.885 11.125 16.9165Z" fill="#C92456"/>
</svg>
