<svg width="19" height="19" viewBox="0 0 19 19" fill="none" xmlns="http://www.w3.org/2000/svg">
<path fill-rule="evenodd" clip-rule="evenodd" d="M8.64263 6.75367C9.03121 6.23001 9.17054 5.67813 8.73107 5.19098C7.74486 3.81099 7.0816 2.95761 6.66558 2.54665C5.87466 1.76535 4.57358 1.87103 3.88859 2.54598C3.52067 2.9085 3.39611 3.03299 3.01834 3.4167C0.914106 5.52207 2.19738 9.97274 5.60879 13.3875C9.01942 16.8015 13.4697 18.0855 15.5783 15.9756C15.9269 15.6396 16.2221 15.3443 16.4548 15.0982C17.1261 14.3887 17.228 13.145 16.4504 12.3371C16.0518 11.9228 15.238 11.2916 13.7999 10.2629C13.3595 9.86912 12.8373 9.95447 12.3585 10.2686C12.1282 10.4197 11.9606 10.5725 11.6442 10.8893L11.0695 11.4643C10.9938 11.54 9.96598 11.0253 8.96828 10.0266C7.97003 9.02739 7.45567 7.99954 7.531 7.92421L8.10608 7.34881C8.20649 7.24831 8.25449 7.19965 8.31605 7.13495C8.44431 7.00015 8.5505 6.87782 8.64263 6.75367ZM12.1295 12.5249L12.7043 11.9498C12.8785 11.7755 12.9914 11.6683 13.0832 11.5944C14.343 12.499 15.0725 13.0679 15.3705 13.3775C15.5495 13.5634 15.5217 13.9026 15.3661 14.067C15.1509 14.2945 14.8712 14.5743 14.5281 14.9053C13.1645 16.2694 9.57217 15.233 6.66909 12.3271C3.7651 9.42023 2.72916 5.82734 4.08239 4.47336C4.45864 4.09123 4.57785 3.97208 4.94051 3.61473C5.07649 3.48075 5.44688 3.45066 5.6123 3.61407C5.9326 3.93047 6.52675 4.69124 7.40078 5.90874C7.35553 5.96492 7.29902 6.0284 7.23024 6.10068C7.17977 6.15373 7.13771 6.19635 7.04578 6.28838L6.47126 6.86321C5.4939 7.84049 6.32626 9.50378 7.90797 11.087C9.48861 12.6692 11.1525 13.5025 12.1295 12.5249Z" fill="#131423"/>
</svg>
